<svg xmlns="http://www.w3.org/2000/svg" xmlns:svg="http://www.w3.org/2000/svg" id="SVGRoot" width="32" height="32" version="1.1" viewBox="0 0 32 32"><metadata id="metadata4506"/><g id="layer1" transform="translate(0,16)"><path id="path2-4" d="M 24,-12.4 H 7.75 c -2.68125,0 -4.875,2.098828 -4.875,4.6640624 V 7.810938 C 2.875,10.376172 5.06875,12.475 7.75,12.475 H 24 c 2.68125,0 4.875,-2.098828 4.875,-4.664062 V -7.7359376 C 28.875,-10.301172 26.68125,-12.4 24,-12.4 Z m 1.625,20.210938 c 0,0.84264 -0.74425,1.554688 -1.625,1.554688 H 7.75 c -0.88075,0 -1.625,-0.712048 -1.625,-1.554688 V -7.7359376 c 0,-0.8426406 0.74425,-1.5546874 1.625,-1.5546874 H 24 c 0.88075,0 1.625,0.7120468 1.625,1.5546874 z" style="fill:#818893;stroke-width:1.58945501;fill-opacity:1"/></g></svg>