<svg xmlns="http://www.w3.org/2000/svg" xmlns:svg="http://www.w3.org/2000/svg" id="SVGRoot" width="32" height="32" version="1.1" viewBox="0 0 32 32"><metadata id="metadata4506"/><g id="layer1" transform="translate(0,16)"><path id="path2-4" d="M 23.1,-10.9 H 6.85 c -2.68125,0 -4.875,2.0988282 -4.875,4.6640624 V 9.310938 C 1.975,11.876172 4.16875,13.975 6.85,13.975 H 23.1 c 2.68125,0 4.875,-2.098828 4.875,-4.664062 V -6.2359376 C 27.975,-8.8011718 25.78125,-10.9 23.1,-10.9 Z m 1.625,20.210938 c 0,0.84264 -0.74425,1.554688 -1.625,1.554688 H 6.85 c -0.88075,0 -1.625,-0.712048 -1.625,-1.554688 V -6.2359376 c 0,-0.8426406 0.74425,-1.5546874 1.625,-1.5546874 H 23.1 c 0.88075,0 1.625,0.7120468 1.625,1.5546874 z" style="fill:#818893;stroke-width:1.58945501;fill-opacity:1"/><rect style="fill:#818893;fill-opacity:1;stroke-width:1.74164665" id="rect4485" width="14" height="4.55" x="8" y="-.75" rx="1.85"/></g></svg>