<svg xmlns="http://www.w3.org/2000/svg" xmlns:svg="http://www.w3.org/2000/svg" id="SVGRoot" width="16" height="16" version="1.1" viewBox="0 0 16 16"><metadata id="metadata4506"/><g id="layer1"><path id="path2-4" d="M 11.7375,2.375 H 3.6125 C 2.271875,2.375 1.175,3.4244141 1.175,4.7070312 v 7.7734378 c 0,1.282617 1.096875,2.332031 2.4375,2.332031 h 8.125 c 1.340625,0 2.4375,-1.049414 2.4375,-2.332031 V 4.7070312 C 14.175,3.4244141 13.078125,2.375 11.7375,2.375 Z M 12.55,12.480469 c 0,0.42132 -0.372125,0.777344 -0.8125,0.777344 H 3.6125 C 3.172125,13.257813 2.8,12.901789 2.8,12.480469 V 4.7070312 C 2.8,4.2857109 3.172125,3.9296875 3.6125,3.9296875 h 8.125 c 0.440375,0 0.8125,0.3560234 0.8125,0.7773437 z" style="stroke-width:.7947275;fill:#b7bec8;fill-opacity:1"/></g></svg>