<svg xmlns="http://www.w3.org/2000/svg" xmlns:svg="http://www.w3.org/2000/svg" id="SVGRoot" width="32" height="32" version="1.1" viewBox="0 0 32 32"><metadata id="metadata4506"/><g id="layer1" transform="translate(0,16)"><path id="path2" d="M 15.99964,-14.094482 C 8.1388331,-14.094482 1.766,-7.7569746 1.766,0.0602578 1.766,7.87781 8.1388331,14.215 15.99964,14.215 c 7.861129,0 14.233641,-6.33719 14.233641,-14.1547422 0,-7.8172324 -6.372512,-14.1547398 -14.233641,-14.1547398 z m 0,24.810556 c -5.917676,0 -10.7152119,-4.770944 -10.7152119,-10.6558162 0,-5.8848724 4.7975359,-10.6558158 10.7152119,-10.6558158 5.917675,0 10.715211,4.7709434 10.715211,10.6558158 0,5.8848722 -4.797536,10.6558162 -10.715211,10.6558162 z" style="fill:#b7bec8;stroke-width:.31896937;fill-opacity:1"/><ellipse style="fill:#b7bec8;fill-opacity:1;stroke-width:1.6108731" id="path4532" cx="15.967" cy=".083" rx="6.604" ry="6.68"/></g></svg>